<?xml version="1.0" encoding="utf-8"?>
<!-- Generator: Adobe Illustrator 25.4.1, SVG Export Plug-In . SVG Version: 6.00 Build 0)  -->
<svg version="1.1" xmlns="http://www.w3.org/2000/svg" xmlns:xlink="http://www.w3.org/1999/xlink" x="0px" y="0px"
	 viewBox="0 0 873 374" style="enable-background:new 0 0 873 374;" xml:space="preserve">
<style type="text/css">
	.st0{fill-rule:evenodd;clip-rule:evenodd;fill:#710698;}
	.st1{fill-rule:evenodd;clip-rule:evenodd;fill:#7944BD;}
	.st2{fill-rule:evenodd;clip-rule:evenodd;fill:#034185;}
	.st3{fill-rule:evenodd;clip-rule:evenodd;fill:#03B5DF;}
	.st4{fill-rule:evenodd;clip-rule:evenodd;fill:#4CAA1C;}
	.st5{fill-rule:evenodd;clip-rule:evenodd;fill:#B8FB2A;}
	.st6{fill-rule:evenodd;clip-rule:evenodd;fill:#F0CC26;}
	.st7{fill-rule:evenodd;clip-rule:evenodd;fill:#F13E03;}
	.st8{fill-rule:evenodd;clip-rule:evenodd;fill:#A90000;}
	.st9{fill-rule:evenodd;clip-rule:evenodd;fill:#AB0000;}
	.st10{fill-rule:evenodd;clip-rule:evenodd;fill:#E50380;}
	.st11{fill-rule:evenodd;clip-rule:evenodd;fill:#720353;}
	.st12{fill-rule:evenodd;clip-rule:evenodd;fill:#5924BD;}
	.st13{fill-rule:evenodd;clip-rule:evenodd;fill:#C2037B;}
	.st14{fill-rule:evenodd;clip-rule:evenodd;fill:#C10000;}
	.st15{fill-rule:evenodd;clip-rule:evenodd;fill:#F37B22;stroke:#FC5C06;stroke-width:0.2268;stroke-miterlimit:10;}
	.st16{fill-rule:evenodd;clip-rule:evenodd;fill:#8BE232;}
	.st17{fill-rule:evenodd;clip-rule:evenodd;fill:#0375AF;}
	.st18{fill-rule:evenodd;clip-rule:evenodd;fill:none;}
	.st19{font-family:'TrendSansOne';}
	.st20{font-size:94px;}
	.st21{font-family:'TrendSlabOne';}
	.st22{font-size:58px;}
	.st23{letter-spacing:-1;}
	.st24{fill:#0375AF;}
	.st25{font-size:24px;}
</style>
<g id="_x32_6">
	<g>
		<polygon class="st0" points="97.98,151.66 102.81,110.3 64.34,132.52 97.79,151.85 		"/>
		<polygon class="st1" points="102.81,110.3 141.32,126.55 141.32,88.08 		"/>
		<polygon class="st2" points="141.32,88.08 141.32,126.55 179.79,110.3 		"/>
		<polygon class="st3" points="179.79,110.3 184.62,151.66 184.86,151.85 218.26,132.52 		"/>
		<polygon class="st4" points="218.26,132.52 184.86,151.85 218.26,176.96 		"/>
		<polygon class="st5" points="218.26,176.96 184.62,201.88 184.62,201.97 218.26,221.39 		"/>
		<polygon class="st6" points="218.26,221.39 184.62,201.97 179.79,243.61 		"/>
		<polygon class="st7" points="179.79,243.61 141.32,226.98 141.32,265.83 		"/>
		<polygon class="st8" points="141.32,265.83 141.32,226.98 102.81,243.61 		"/>
		<polygon class="st9" points="102.81,243.61 97.98,201.97 64.34,221.39 		"/>
		<polygon class="st10" points="64.34,221.39 97.98,201.97 97.98,201.88 64.34,176.96 		"/>
		<polygon class="st11" points="64.34,176.96 97.79,151.85 64.34,132.52 		"/>
		<polygon class="st12" points="102.81,110.3 97.98,151.66 119.63,139.1 141.32,126.55 		"/>
		<polygon class="st13" points="97.79,151.85 64.34,176.96 97.98,201.88 97.98,176.77 97.98,151.94 		"/>
		<polygon class="st14" points="119.63,214.43 98.07,201.92 97.98,201.97 102.81,243.61 141.32,226.98 		"/>
		<polygon class="st15" points="162.97,214.43 141.32,226.98 179.79,243.61 184.62,201.97 184.57,201.92 		"/>
		<polygon class="st16" points="184.62,176.77 184.62,201.88 218.26,176.96 184.86,151.85 184.62,151.94 		"/>
		<polygon class="st17" points="162.97,139.1 184.62,151.66 179.79,110.3 141.32,126.55 		"/>
	</g>
	<rect x="242.98" y="123.98" class="st18" width="533.02" height="75.02"/>
	<text transform="matrix(1 0 0 1 242.9834 190.0649)" class="st19 st20">BUSINESS</text>
	<rect x="118.98" y="156.98" class="st18" width="52.02" height="48.02"/>
	<text transform="matrix(1 0 0 1 118.9834 197.7573)" class="st21 st22 st23">B</text>
	<rect x="252.98" y="214.98" class="st18" width="534.02" height="29.02"/>
	<text transform="matrix(1 0 0 1 252.9834 231.855)" class="st24 st21 st25">WE Sell lots of amazing things</text>
</g>
<g id="Layer_1">
</g>
</svg>
