<?xml version="1.0" encoding="utf-8"?>
<!-- Generator: Adobe Illustrator 25.4.1, SVG Export Plug-In . SVG Version: 6.00 Build 0)  -->
<svg version="1.1" xmlns="http://www.w3.org/2000/svg" xmlns:xlink="http://www.w3.org/1999/xlink" x="0px" y="0px"
	 viewBox="0 0 946 247" style="enable-background:new 0 0 946 247;" xml:space="preserve">
<style type="text/css">
	.st0{fill:#FFFFFF;}
	.st1{fill:#17CAE2;}
	.st2{fill:#034185;}
	.st3{fill:#F73C3C;}
	.st4{fill:#F29025;}
</style>
<g id="_x32_6">
	<polygon class="st0" points="178,158.67 108,159 95,107 198,107 	"/>
	<g>
		<path d="M233.34,100.98h10.29v42h-10.29V100.98z"/>
		<path d="M254.55,100.98h10.85l16.31,24.92v-24.92h10.22v42h-10.71l-16.38-24.99v24.99h-10.29V100.98z"/>
		<path d="M312.65,130.66c0,2.45,1.96,4.41,4.34,4.41c2.59,0,4.2-1.47,4.2-3.64c0-3.15-4.13-4.06-7.56-5.25
			c-7.07-2.52-10.99-5.81-10.99-13.02c0-7.42,6.37-13.58,14.28-13.58c9.31,0,13.72,5.95,14.28,13.72h-9.66
			c0-2.38-1.47-4.34-4.34-4.34c-2.24,0-4.41,1.33-4.41,4.06c0,3.15,3.85,3.71,7.42,4.76c7.49,2.24,10.99,6.44,10.99,13.02
			c0,7.42-6.3,13.58-14.21,13.58c-9.17,0-14.35-6.16-14.35-13.72H312.65z"/>
		<path d="M349.05,110.08h-9.38v-9.1h29.26v9.1h-9.52v32.9h-10.36V110.08z"/>
		<path d="M389.8,99.58h1.82l20.58,43.4h-11.06l-2.1-4.34h-16.59l-2.03,4.34h-11.06L389.8,99.58z M395.54,131.29l-4.83-10.64h-0.14
			l-4.9,10.64H395.54z"/>
		<path d="M420.87,100.98h10.85l16.31,24.92v-24.92h10.22v42h-10.71l-16.38-24.99v24.99h-10.29V100.98z"/>
		<path d="M476.59,110.08h-9.38v-9.1h29.26v9.1h-9.52v32.9h-10.36V110.08z"/>
		<path d="M547.72,99.58c13.23,0,22.61,9.87,22.61,22.4c0,12.53-9.38,22.4-22.61,22.4c-13.3,0-22.61-9.87-22.61-22.4
			C525.1,109.45,534.42,99.58,547.72,99.58z M547.72,134.65c7.42,0,12.18-5.6,12.18-12.67c0-7.07-4.76-12.67-12.18-12.67
			c-7.49,0-12.18,5.6-12.18,12.67C535.54,129.05,540.23,134.65,547.72,134.65z"/>
		<path d="M581.66,100.98h27.09v9.1h-16.8v8.96h15.47V128h-15.47v14.98h-10.29V100.98z"/>
		<path d="M617.22,100.98h27.09v9.1h-16.8v8.96h15.47V128h-15.47v14.98h-10.29V100.98z"/>
		<path d="M652.78,100.98h10.29v42h-10.29V100.98z"/>
		<path d="M697.17,99.58c7.98,0,13.51,3.01,17.99,7.7l-7.07,6.72c-2.94-2.87-6.72-4.69-10.92-4.69c-7.49,0-12.32,5.6-12.32,12.67
			c0,7.07,4.83,12.67,12.32,12.67c4.2,0,7.98-1.82,10.92-4.69l6.86,6.72c-4.2,4.41-10.01,7.7-17.78,7.7
			c-13.3,0-22.75-9.87-22.75-22.4C674.41,109.45,683.87,99.58,697.17,99.58z"/>
		<path d="M724.32,100.98h27.79v9.1h-17.5v7.56h16.17v8.96h-16.17v7.56h18.27v8.82h-28.56V100.98z"/>
		<path d="M761.7,135.28h8.89v1.05l-9.45,14.7h-1.54L761.7,135.28z"/>
		<path d="M798.8,100.98h10.29v42H798.8V100.98z"/>
		<path d="M820.01,100.98h10.85l16.31,24.92v-24.92h10.22v42h-10.71l-16.38-24.99v24.99h-10.29V100.98z"/>
		<path d="M891.48,99.58c7.98,0,13.51,3.01,17.99,7.7L902.4,114c-2.94-2.87-6.72-4.69-10.92-4.69c-7.49,0-12.32,5.6-12.32,12.67
			c0,7.07,4.83,12.67,12.32,12.67c4.2,0,7.98-1.82,10.92-4.69l6.86,6.72c-4.2,4.41-10.01,7.7-17.78,7.7
			c-13.3,0-22.75-9.87-22.75-22.4C868.73,109.45,878.18,99.58,891.48,99.58z"/>
		<path d="M922.63,134.37c3.01,0,5.04,1.82,5.04,4.83s-2.03,4.83-5.04,4.83c-3.01,0-5.04-1.82-5.04-4.83
			S919.62,134.37,922.63,134.37z"/>
	</g>
	<g>
		<path class="st1" d="M242.85,185.91l-0.3-16.38v-1.02c0.06-0.24,0.17-0.48,0.33-0.72s0.43-0.51,0.79-0.81
			c0.37-0.3,0.85-0.45,1.46-0.45c0.71,0,1.24,0.18,1.58,0.54c0.28,0.36,0.43,0.9,0.43,1.62l-0.15,12.75l6.75-13.14
			c0.26-0.52,0.63-0.95,1.11-1.28c0.48-0.33,1.01-0.49,1.59-0.49c1.2,0,1.86,0.59,1.98,1.77l1.11,13.14l5.34-12.75
			c0.3-0.7,0.69-1.24,1.16-1.61s1.04-0.55,1.7-0.55c0.64,0,1.09,0.17,1.37,0.52c0.27,0.35,0.4,0.71,0.4,1.07l-0.03,0.39
			c-0.06,0.22-0.11,0.43-0.15,0.63c-0.1,0.18-0.17,0.31-0.21,0.39l-7.29,16.38c-0.3,0.68-0.75,1.24-1.35,1.68
			c-0.6,0.44-1.32,0.66-2.16,0.66c-0.7,0-1.28-0.21-1.73-0.63s-0.71-0.94-0.76-1.56l-1.02-11.58l-6,11.58
			c-0.3,0.64-0.76,1.17-1.39,1.58c-0.63,0.41-1.33,0.62-2.08,0.62c-0.78,0-1.38-0.22-1.82-0.66
			C243.06,187.15,242.85,186.59,242.85,185.91z"/>
		<path class="st1" d="M273.6,185.82l3.51-16.5c0.16-0.78,0.5-1.41,1-1.89c0.51-0.48,1.14-0.72,1.91-0.72h7.44
			c0.68,0,1.14,0.18,1.39,0.53s0.38,0.7,0.38,1.04l-0.06,0.51c-0.12,0.54-0.42,1.02-0.89,1.44s-1.03,0.63-1.69,0.63h-5.28
			l-0.93,4.38h4.92c0.66,0,1.12,0.17,1.39,0.5c0.27,0.33,0.41,0.7,0.41,1.09c0,0.2-0.04,0.48-0.12,0.83
			c-0.08,0.35-0.36,0.72-0.83,1.12c-0.47,0.4-1.05,0.6-1.75,0.6h-4.92l-0.99,4.56h5.58c0.68,0,1.17,0.2,1.47,0.6
			c0.18,0.3,0.27,0.63,0.27,0.99l-0.03,0.48c-0.12,0.52-0.41,1-0.87,1.44c-0.52,0.42-1.09,0.63-1.71,0.63h-7.77
			c-0.66,0-1.14-0.17-1.44-0.52c-0.3-0.35-0.45-0.72-0.45-1.12L273.6,185.82z"/>
		<path class="st1" d="M324.12,169.35c-0.14,0.6-0.43,1.12-0.88,1.56c-0.45,0.44-0.99,0.66-1.61,0.66c-0.34,0-0.92-0.15-1.74-0.45
			c-0.82-0.3-1.5-0.45-2.04-0.45c-0.72,0-1.35,0.17-1.88,0.5c-0.53,0.33-0.88,0.81-1.04,1.46c0,0.84,0.94,1.56,2.82,2.16
			c1.88,0.6,3.28,1.23,4.19,1.9c0.91,0.67,1.37,1.63,1.37,2.89c0,0.36-0.01,0.65-0.03,0.86c-0.02,0.21-0.17,0.96-0.44,2.25
			c-0.27,1.29-1.27,2.57-3.01,3.84c-1.74,1.27-3.7,1.91-5.88,1.91c-1.8,0-3.37-0.23-4.7-0.67c-1.33-0.45-2-1.16-2-2.12l0.09-0.57
			c0.08-0.58,0.35-1.08,0.82-1.5s1-0.63,1.61-0.63c0.36,0,1.12,0.19,2.28,0.58c1.16,0.39,2.01,0.59,2.55,0.59
			c0.98,0,1.79-0.24,2.43-0.72c0.64-0.48,1.03-1.1,1.17-1.86l0.03-0.24c0-0.84-0.74-1.5-2.21-1.98s-2.59-0.89-3.36-1.23
			c-0.77-0.34-1.45-0.7-2.02-1.08c-0.58-0.38-0.87-1.13-0.87-2.25c0-0.18,0-0.35,0.01-0.51c0.01-0.16,0.05-0.52,0.13-1.08
			c0.46-2.04,1.56-3.68,3.29-4.93c1.73-1.25,3.62-1.88,5.66-1.88c1.24,0,2.43,0.22,3.57,0.66c1.14,0.44,1.71,1.07,1.71,1.89
			L324.12,169.35z"/>
		<path class="st1" d="M330.29,185.82l3.51-16.5c0.16-0.78,0.5-1.41,1-1.89c0.51-0.48,1.14-0.72,1.91-0.72h7.44
			c0.68,0,1.14,0.18,1.39,0.53s0.38,0.7,0.38,1.04l-0.06,0.51c-0.12,0.54-0.42,1.02-0.89,1.44s-1.03,0.63-1.69,0.63H338l-0.93,4.38
			H342c0.66,0,1.12,0.17,1.39,0.5c0.27,0.33,0.41,0.7,0.41,1.09c0,0.2-0.04,0.48-0.12,0.83c-0.08,0.35-0.36,0.72-0.83,1.12
			c-0.47,0.4-1.05,0.6-1.75,0.6h-4.92l-0.99,4.56h5.58c0.68,0,1.17,0.2,1.47,0.6c0.18,0.3,0.27,0.63,0.27,0.99l-0.03,0.48
			c-0.12,0.52-0.41,1-0.87,1.44c-0.52,0.42-1.09,0.63-1.71,0.63h-7.77c-0.66,0-1.14-0.17-1.44-0.52c-0.3-0.35-0.45-0.72-0.45-1.12
			L330.29,185.82z"/>
		<path class="st1" d="M350.43,185.61l3.57-16.74c0.18-0.76,0.51-1.34,1-1.74s1.08-0.6,1.76-0.6c0.66,0,1.13,0.16,1.41,0.48
			c0.28,0.32,0.42,0.71,0.42,1.17c0,0.3-0.02,0.53-0.06,0.69l-3.24,15.06h5.37c0.7,0,1.2,0.21,1.5,0.63
			c0.18,0.34,0.27,0.68,0.27,1.02l-0.06,0.51c-0.12,0.54-0.42,1-0.88,1.4c-0.47,0.39-1.04,0.58-1.7,0.58h-7.53
			c-0.72,0-1.22-0.18-1.49-0.54c-0.27-0.36-0.41-0.77-0.41-1.23L350.43,185.61z"/>
		<path class="st1" d="M369.42,185.61l3.57-16.74c0.18-0.76,0.51-1.34,1-1.74s1.08-0.6,1.76-0.6c0.66,0,1.13,0.16,1.41,0.48
			c0.28,0.32,0.42,0.71,0.42,1.17c0,0.3-0.02,0.53-0.06,0.69l-3.24,15.06h5.37c0.7,0,1.2,0.21,1.5,0.63
			c0.18,0.34,0.27,0.68,0.27,1.02l-0.06,0.51c-0.12,0.54-0.42,1-0.88,1.4c-0.47,0.39-1.04,0.58-1.7,0.58h-7.53
			c-0.72,0-1.22-0.18-1.49-0.54c-0.27-0.36-0.41-0.77-0.41-1.23L369.42,185.61z"/>
		<path class="st1" d="M402.66,185.61l3.57-16.74c0.18-0.76,0.51-1.34,1-1.74s1.08-0.6,1.76-0.6c0.66,0,1.13,0.16,1.41,0.48
			c0.28,0.32,0.42,0.71,0.42,1.17c0,0.3-0.02,0.53-0.06,0.69l-3.24,15.06h5.37c0.7,0,1.2,0.21,1.5,0.63
			c0.18,0.34,0.27,0.68,0.27,1.02l-0.06,0.51c-0.12,0.54-0.42,1-0.88,1.4c-0.47,0.39-1.04,0.58-1.7,0.58h-7.53
			c-0.72,0-1.22-0.18-1.49-0.54c-0.27-0.36-0.41-0.77-0.41-1.23L402.66,185.61z"/>
		<path class="st1" d="M422.57,177.39c0.66-3.16,2.18-5.79,4.56-7.89c2.38-2.1,5.09-3.15,8.13-3.15c2.96,0,5.08,0.91,6.38,2.73
			c1.29,1.82,1.93,3.7,1.93,5.64c0,0.9-0.22,2.37-0.67,4.39c-0.45,2.03-1.86,4.09-4.21,6.18c-2.36,2.09-5.07,3.13-8.13,3.13
			c-3.04,0-5.18-0.88-6.43-2.66c-1.25-1.77-1.88-3.63-1.88-5.59c0-0.4,0.03-0.84,0.09-1.32
			C422.39,178.38,422.47,177.89,422.57,177.39z M438.56,177.39c0.06-0.36,0.11-0.71,0.15-1.04s0.06-0.65,0.06-0.97
			c0-1.1-0.28-2.19-0.84-3.27c-0.56-1.08-1.75-1.62-3.57-1.62c-1.78,0-3.31,0.66-4.58,1.96c-1.27,1.31-2.05,2.65-2.34,4.02
			s-0.43,2.35-0.43,2.96c0,1.14,0.23,2.1,0.69,2.88c0.66,1.32,1.91,1.98,3.75,1.98c1.78,0,3.3-0.67,4.58-2
			C437.3,180.96,438.14,179.33,438.56,177.39z"/>
		<path class="st1" d="M453.08,185.91l3.24-15.06h-3.3c-0.66,0-1.1-0.16-1.32-0.48c-0.22-0.32-0.33-0.68-0.33-1.08l0.06-0.51
			c0.08-0.54,0.36-1.02,0.84-1.44c0.48-0.42,1.03-0.63,1.65-0.63h11.04c0.62,0,1.08,0.2,1.38,0.6c0.18,0.3,0.27,0.63,0.27,0.99
			l-0.03,0.48c-0.12,0.54-0.39,1.02-0.81,1.44c-0.48,0.42-1.04,0.63-1.68,0.63h-3.27l-3.21,15.06c-0.14,0.74-0.46,1.32-0.97,1.73
			c-0.51,0.41-1.11,0.62-1.79,0.62c-0.66,0-1.13-0.16-1.41-0.48c-0.28-0.32-0.42-0.71-0.42-1.17L453.08,185.91z"/>
		<path class="st1" d="M486.29,169.35c-0.14,0.6-0.43,1.12-0.88,1.56c-0.45,0.44-0.99,0.66-1.61,0.66c-0.34,0-0.92-0.15-1.74-0.45
			c-0.82-0.3-1.5-0.45-2.04-0.45c-0.72,0-1.35,0.17-1.88,0.5c-0.53,0.33-0.88,0.81-1.04,1.46c0,0.84,0.94,1.56,2.82,2.16
			c1.88,0.6,3.28,1.23,4.19,1.9c0.91,0.67,1.37,1.63,1.37,2.89c0,0.36-0.01,0.65-0.03,0.86c-0.02,0.21-0.17,0.96-0.44,2.25
			c-0.27,1.29-1.27,2.57-3.01,3.84c-1.74,1.27-3.7,1.91-5.88,1.91c-1.8,0-3.37-0.23-4.7-0.67c-1.33-0.45-2-1.16-2-2.12l0.09-0.57
			c0.08-0.58,0.35-1.08,0.82-1.5s1-0.63,1.61-0.63c0.36,0,1.12,0.19,2.28,0.58c1.16,0.39,2.01,0.59,2.55,0.59
			c0.98,0,1.79-0.24,2.43-0.72c0.64-0.48,1.03-1.1,1.17-1.86l0.03-0.24c0-0.84-0.74-1.5-2.21-1.98s-2.59-0.89-3.36-1.23
			c-0.77-0.34-1.45-0.7-2.02-1.08c-0.58-0.38-0.87-1.13-0.87-2.25c0-0.18,0-0.35,0.01-0.51c0.01-0.16,0.05-0.52,0.13-1.08
			c0.46-2.04,1.56-3.68,3.29-4.93c1.73-1.25,3.62-1.88,5.66-1.88c1.24,0,2.43,0.22,3.57,0.66c1.14,0.44,1.71,1.07,1.71,1.89
			L486.29,169.35z"/>
		<path class="st1" d="M507.68,177.39c0.66-3.16,2.18-5.79,4.56-7.89c2.38-2.1,5.09-3.15,8.13-3.15c2.96,0,5.08,0.91,6.38,2.73
			c1.29,1.82,1.93,3.7,1.93,5.64c0,0.9-0.22,2.37-0.67,4.39c-0.45,2.03-1.86,4.09-4.21,6.18c-2.36,2.09-5.07,3.13-8.13,3.13
			c-3.04,0-5.18-0.88-6.43-2.66c-1.25-1.77-1.88-3.63-1.88-5.59c0-0.4,0.03-0.84,0.09-1.32
			C507.5,178.38,507.58,177.89,507.68,177.39z M523.67,177.39c0.06-0.36,0.11-0.71,0.15-1.04s0.06-0.65,0.06-0.97
			c0-1.1-0.28-2.19-0.84-3.27c-0.56-1.08-1.75-1.62-3.57-1.62c-1.78,0-3.31,0.66-4.58,1.96c-1.27,1.31-2.05,2.65-2.34,4.02
			s-0.43,2.35-0.43,2.96c0,1.14,0.23,2.1,0.69,2.88c0.66,1.32,1.91,1.98,3.75,1.98c1.78,0,3.3-0.67,4.58-2
			C522.41,180.96,523.25,179.33,523.67,177.39z"/>
		<path class="st1" d="M534.59,185.91l3.6-16.86c0.12-0.64,0.45-1.19,0.99-1.65c0.54-0.46,1.16-0.69,1.86-0.69h7.68
			c0.62,0,1.04,0.17,1.28,0.51c0.23,0.34,0.34,0.69,0.34,1.05l-0.03,0.51c-0.12,0.54-0.39,1.02-0.82,1.44
			c-0.43,0.42-0.98,0.63-1.64,0.63h-5.52l-0.93,4.38h4.65c0.64,0,1.1,0.17,1.37,0.5c0.27,0.33,0.41,0.69,0.41,1.07l-0.03,0.48
			c-0.16,0.6-0.47,1.1-0.93,1.5c-0.46,0.4-1.02,0.6-1.68,0.6h-4.68l-1.41,6.54c-0.14,0.74-0.46,1.32-0.97,1.73
			c-0.51,0.41-1.09,0.62-1.75,0.62s-1.13-0.16-1.41-0.48c-0.28-0.32-0.42-0.71-0.42-1.17L534.59,185.91z"/>
		<path class="st1" d="M567.44,185.16l9.54-16.32c0.4-0.72,0.93-1.32,1.6-1.79s1.38-0.71,2.15-0.71c0.78,0,1.33,0.17,1.67,0.5
			s0.57,0.65,0.72,0.96c0.15,0.31,0.25,0.66,0.29,1.04l2.43,16.32l0.06,0.6l-0.06,0.51c-0.16,0.6-0.47,1.08-0.93,1.44
			c-0.46,0.36-0.98,0.54-1.56,0.54c-0.6,0-1.04-0.14-1.32-0.42c-0.36-0.3-0.54-0.68-0.54-1.14l-0.3-2.82h-8.37l-1.5,2.79
			c-0.12,0.24-0.27,0.46-0.45,0.66c-0.18,0.2-0.42,0.41-0.71,0.62c-0.29,0.21-0.74,0.32-1.33,0.32s-1.05-0.17-1.37-0.5
			s-0.46-0.71-0.46-1.12l0.06-0.48l0.21-0.66L567.44,185.16z M579.74,171.03l-4.74,8.7h5.7L579.74,171.03z"/>
		<path class="st1" d="M592.97,185.58l6.39-16.74c0.22-0.58,0.66-1.11,1.32-1.59s1.36-0.72,2.1-0.72c0.72,0,1.32,0.22,1.81,0.66
			c0.49,0.44,0.74,0.94,0.74,1.5l1.02,11.88l6.12-11.88c0.34-0.6,0.82-1.11,1.44-1.53c0.7-0.42,1.38-0.63,2.04-0.63
			c0.74,0,1.28,0.17,1.63,0.51c0.35,0.34,0.57,0.63,0.67,0.88c0.1,0.25,0.15,0.55,0.15,0.92l-0.78,16.74l-0.06,0.51
			c-0.12,0.64-0.44,1.16-0.96,1.56c-0.52,0.4-1.08,0.6-1.68,0.6c-1.28,0-1.92-0.7-1.92-2.1l0.84-12.21l-6.33,12.57
			c-0.24,0.5-0.58,0.92-1.02,1.25c-0.44,0.33-1.02,0.5-1.74,0.5s-1.18-0.12-1.38-0.36s-0.35-0.46-0.45-0.64
			c-0.1-0.19-0.17-0.44-0.21-0.74l-0.93-12.57l-4.44,12.21c-0.28,0.76-0.63,1.3-1.06,1.62c-0.43,0.32-1,0.48-1.73,0.48
			c-0.64,0-1.09-0.17-1.36-0.51c-0.27-0.34-0.41-0.71-0.41-1.11l0.06-0.54L592.97,185.58z"/>
		<path class="st1" d="M624.98,185.16l9.54-16.32c0.4-0.72,0.93-1.32,1.6-1.79s1.38-0.71,2.15-0.71c0.78,0,1.33,0.17,1.67,0.5
			s0.57,0.65,0.72,0.96c0.15,0.31,0.25,0.66,0.29,1.04l2.43,16.32l0.06,0.6l-0.06,0.51c-0.16,0.6-0.47,1.08-0.93,1.44
			c-0.46,0.36-0.98,0.54-1.56,0.54c-0.6,0-1.04-0.14-1.32-0.42c-0.36-0.3-0.54-0.68-0.54-1.14l-0.3-2.82h-8.37l-1.5,2.79
			c-0.12,0.24-0.27,0.46-0.45,0.66c-0.18,0.2-0.42,0.41-0.71,0.62c-0.29,0.21-0.74,0.32-1.33,0.32s-1.05-0.17-1.37-0.5
			s-0.46-0.71-0.46-1.12l0.06-0.48l0.21-0.66L624.98,185.16z M637.28,171.03l-4.74,8.7h5.7L637.28,171.03z"/>
		<path class="st1" d="M656.36,184.11h8.73c0.66,0,1.12,0.14,1.4,0.43c0.27,0.29,0.4,0.64,0.4,1.03l-0.06,0.51
			c-0.12,0.56-0.44,1.03-0.95,1.41s-1.05,0.57-1.63,0.57h-11.82c-0.74,0-1.28-0.17-1.62-0.52c-0.34-0.34-0.51-0.74-0.51-1.19
			l0.06-0.49c0.16-0.63,0.49-1.22,0.99-1.77l12.54-13.44H656c-1.18,0-1.77-0.45-1.77-1.35l0.03-0.57c0.16-0.58,0.47-1.07,0.95-1.46
			c0.47-0.39,1.01-0.58,1.63-0.58h10.98c0.82,0,1.38,0.18,1.67,0.54c0.29,0.36,0.43,0.75,0.43,1.17l-0.03,0.45
			c-0.16,0.72-0.52,1.36-1.08,1.92L656.36,184.11z"/>
		<path class="st1" d="M675.08,185.91l3.63-17.04c0.18-0.76,0.51-1.34,1-1.74s1.08-0.6,1.76-0.6c0.66,0,1.13,0.16,1.41,0.48
			c0.28,0.32,0.42,0.71,0.42,1.17c0,0.3-0.02,0.53-0.06,0.69l-3.66,17.04c-0.14,0.74-0.46,1.32-0.97,1.73
			c-0.51,0.41-1.09,0.62-1.75,0.62s-1.13-0.16-1.41-0.48c-0.28-0.32-0.42-0.71-0.42-1.17L675.08,185.91z"/>
		<path class="st1" d="M688.28,185.91l3.63-17.04c0.18-0.76,0.51-1.34,1-1.74s1.08-0.6,1.75-0.6c0.3,0,0.58,0.07,0.84,0.21
			c0.26,0.14,0.45,0.27,0.56,0.38c0.11,0.11,0.2,0.25,0.29,0.41l6.84,12.69l2.46-11.34c0.18-0.78,0.52-1.36,1.02-1.74
			c0.46-0.4,1.03-0.6,1.71-0.6s1.17,0.17,1.46,0.51s0.44,0.72,0.44,1.14l-0.09,0.69l-3.66,17.04c-0.14,0.74-0.47,1.32-0.98,1.73
			c-0.51,0.41-1.11,0.62-1.79,0.62c-0.32,0-0.62-0.1-0.9-0.3c-0.34-0.16-0.59-0.39-0.75-0.69l-6.84-12.54l-2.49,11.19
			c-0.14,0.74-0.46,1.32-0.98,1.73c-0.51,0.41-1.1,0.62-1.78,0.62c-0.64,0-1.1-0.16-1.38-0.48c-0.28-0.32-0.42-0.71-0.42-1.17
			L688.28,185.91z"/>
		<path class="st1" d="M729.05,175.41h5.1c1.44,0,2.16,0.63,2.16,1.89c0,0.2,0,0.4,0,0.6c-0.06,0.18-0.26,1.03-0.6,2.55
			s-1.6,3.23-3.79,5.13c-2.19,1.9-4.75,2.85-7.7,2.85c-3.04,0-5.18-0.88-6.43-2.66c-1.25-1.77-1.88-3.63-1.88-5.59
			c0-0.4,0.03-0.84,0.09-1.32c0.06-0.48,0.28-1.64,0.66-3.46c0.38-1.83,1.76-3.8,4.14-5.9c2.38-2.1,5.09-3.15,8.13-3.15
			c2.22,0,4.01,0.41,5.38,1.22c1.37,0.81,2.05,1.66,2.05,2.56l-0.06,0.45c-0.06,0.34-0.16,0.62-0.29,0.83
			c-0.13,0.21-0.38,0.47-0.74,0.79c-0.36,0.32-0.8,0.48-1.32,0.48c-0.18,0-0.9-0.36-2.16-1.09c-1.26-0.73-2.52-1.1-3.78-1.1
			c-1.78,0-3.31,0.66-4.58,1.96c-1.27,1.31-2.05,2.65-2.34,4.02s-0.43,2.35-0.43,2.96c0,1.14,0.23,2.1,0.69,2.88
			c0.66,1.32,1.91,1.98,3.75,1.98c1.36,0,2.63-0.39,3.81-1.17c1.18-0.78,1.94-1.97,2.28-3.57h-3.06c-0.58,0-1.04-0.2-1.38-0.6
			c-0.22-0.34-0.33-0.68-0.33-1.02l0.06-0.48c0.12-0.58,0.42-1.07,0.9-1.46C727.88,175.6,728.43,175.41,729.05,175.41z"/>
		<path class="st1" d="M760.46,185.91l3.24-15.06h-3.3c-0.66,0-1.1-0.16-1.32-0.48c-0.22-0.32-0.33-0.68-0.33-1.08l0.06-0.51
			c0.08-0.54,0.36-1.02,0.84-1.44c0.48-0.42,1.03-0.63,1.65-0.63h11.04c0.62,0,1.08,0.2,1.38,0.6c0.18,0.3,0.27,0.63,0.27,0.99
			l-0.03,0.48c-0.12,0.54-0.39,1.02-0.81,1.44c-0.48,0.42-1.04,0.63-1.68,0.63h-3.27l-3.21,15.06c-0.14,0.74-0.46,1.32-0.97,1.73
			c-0.51,0.41-1.11,0.62-1.79,0.62c-0.66,0-1.13-0.16-1.41-0.48c-0.28-0.32-0.42-0.71-0.42-1.17L760.46,185.91z"/>
		<path class="st1" d="M777.47,185.91l3.63-17.04c0.18-0.76,0.51-1.34,1-1.74s1.08-0.6,1.76-0.6c0.66,0,1.13,0.16,1.41,0.48
			c0.28,0.32,0.42,0.71,0.42,1.17c0,0.3-0.02,0.53-0.06,0.69l-1.35,6.36h9.42l1.35-6.36c0.14-0.7,0.4-1.21,0.78-1.54
			s0.71-0.54,0.99-0.65c0.28-0.1,0.6-0.15,0.96-0.15c0.68,0,1.2,0.2,1.56,0.6c0.2,0.26,0.3,0.61,0.3,1.05c0,0.3-0.02,0.53-0.06,0.69
			l-3.66,17.04c-0.18,0.76-0.49,1.33-0.93,1.71c-0.54,0.42-1.14,0.63-1.8,0.63c-0.66,0-1.13-0.17-1.42-0.51s-0.43-0.73-0.43-1.17
			l0.09-0.66l1.38-6.54h-9.42l-1.41,6.54c-0.14,0.74-0.46,1.32-0.97,1.73c-0.51,0.41-1.09,0.62-1.75,0.62s-1.13-0.16-1.41-0.48
			c-0.28-0.32-0.42-0.71-0.42-1.17L777.47,185.91z"/>
		<path class="st1" d="M804.83,185.91l3.63-17.04c0.18-0.76,0.51-1.34,1-1.74s1.08-0.6,1.76-0.6c0.66,0,1.13,0.16,1.41,0.48
			c0.28,0.32,0.42,0.71,0.42,1.17c0,0.3-0.02,0.53-0.06,0.69l-3.66,17.04c-0.14,0.74-0.46,1.32-0.97,1.73
			c-0.51,0.41-1.09,0.62-1.75,0.62s-1.13-0.16-1.41-0.48c-0.28-0.32-0.42-0.71-0.42-1.17L804.83,185.91z"/>
		<path class="st1" d="M818.03,185.91l3.63-17.04c0.18-0.76,0.51-1.34,1-1.74s1.08-0.6,1.75-0.6c0.3,0,0.58,0.07,0.84,0.21
			c0.26,0.14,0.45,0.27,0.56,0.38c0.11,0.11,0.2,0.25,0.29,0.41l6.84,12.69l2.46-11.34c0.18-0.78,0.52-1.36,1.02-1.74
			c0.46-0.4,1.03-0.6,1.71-0.6s1.17,0.17,1.46,0.51s0.44,0.72,0.44,1.14l-0.09,0.69l-3.66,17.04c-0.14,0.74-0.47,1.32-0.98,1.73
			c-0.51,0.41-1.11,0.62-1.79,0.62c-0.32,0-0.62-0.1-0.9-0.3c-0.34-0.16-0.59-0.39-0.75-0.69l-6.84-12.54l-2.49,11.19
			c-0.14,0.74-0.46,1.32-0.98,1.73c-0.51,0.41-1.1,0.62-1.78,0.62c-0.64,0-1.1-0.16-1.38-0.48c-0.28-0.32-0.42-0.71-0.42-1.17
			L818.03,185.91z"/>
		<path class="st1" d="M858.8,175.41h5.1c1.44,0,2.16,0.63,2.16,1.89c0,0.2,0,0.4,0,0.6c-0.06,0.18-0.26,1.03-0.6,2.55
			s-1.6,3.23-3.79,5.13c-2.19,1.9-4.75,2.85-7.7,2.85c-3.04,0-5.18-0.88-6.43-2.66c-1.25-1.77-1.88-3.63-1.88-5.59
			c0-0.4,0.03-0.84,0.09-1.32c0.06-0.48,0.28-1.64,0.66-3.46c0.38-1.83,1.76-3.8,4.14-5.9c2.38-2.1,5.09-3.15,8.13-3.15
			c2.22,0,4.01,0.41,5.38,1.22c1.37,0.81,2.05,1.66,2.05,2.56l-0.06,0.45c-0.06,0.34-0.16,0.62-0.29,0.83
			c-0.13,0.21-0.38,0.47-0.74,0.79c-0.36,0.32-0.8,0.48-1.32,0.48c-0.18,0-0.9-0.36-2.16-1.09c-1.26-0.73-2.52-1.1-3.78-1.1
			c-1.78,0-3.31,0.66-4.58,1.96c-1.27,1.31-2.05,2.65-2.34,4.02s-0.43,2.35-0.43,2.96c0,1.14,0.23,2.1,0.69,2.88
			c0.66,1.32,1.91,1.98,3.75,1.98c1.36,0,2.63-0.39,3.81-1.17c1.18-0.78,1.94-1.97,2.28-3.57h-3.06c-0.58,0-1.04-0.2-1.38-0.6
			c-0.22-0.34-0.33-0.68-0.33-1.02l0.06-0.48c0.12-0.58,0.42-1.07,0.9-1.46C857.63,175.6,858.18,175.41,858.8,175.41z"/>
		<path class="st1" d="M888.56,169.35c-0.14,0.6-0.43,1.12-0.88,1.56c-0.45,0.44-0.99,0.66-1.61,0.66c-0.34,0-0.92-0.15-1.74-0.45
			c-0.82-0.3-1.5-0.45-2.04-0.45c-0.72,0-1.35,0.17-1.88,0.5c-0.53,0.33-0.88,0.81-1.04,1.46c0,0.84,0.94,1.56,2.82,2.16
			c1.88,0.6,3.28,1.23,4.19,1.9c0.91,0.67,1.37,1.63,1.37,2.89c0,0.36-0.01,0.65-0.03,0.86c-0.02,0.21-0.17,0.96-0.44,2.25
			c-0.27,1.29-1.27,2.57-3.01,3.84c-1.74,1.27-3.7,1.91-5.88,1.91c-1.8,0-3.37-0.23-4.7-0.67c-1.33-0.45-2-1.16-2-2.12l0.09-0.57
			c0.08-0.58,0.35-1.08,0.82-1.5s1-0.63,1.61-0.63c0.36,0,1.12,0.19,2.28,0.58c1.16,0.39,2.01,0.59,2.55,0.59
			c0.98,0,1.79-0.24,2.43-0.72c0.64-0.48,1.03-1.1,1.17-1.86l0.03-0.24c0-0.84-0.74-1.5-2.21-1.98s-2.59-0.89-3.36-1.23
			c-0.77-0.34-1.45-0.7-2.02-1.08c-0.58-0.38-0.87-1.13-0.87-2.25c0-0.18,0-0.35,0.01-0.51c0.01-0.16,0.05-0.52,0.13-1.08
			c0.46-2.04,1.56-3.68,3.29-4.93c1.73-1.25,3.62-1.88,5.66-1.88c1.24,0,2.43,0.22,3.57,0.66c1.14,0.44,1.71,1.07,1.71,1.89
			L888.56,169.35z"/>
	</g>
	<path class="st2" d="M97.6,104.73h100.22c2.11,0,3.82,1.71,3.82,3.82c0,0.61-0.14,1.18-0.39,1.69l-20.56,49.56
		c-0.61,1.47-2.03,2.35-3.52,2.35v0.01h-64.76l1.99,7.73h68.67c2.11,0,3.82,1.71,3.82,3.82c0,2.11-1.71,3.82-3.82,3.82h-71.61v-0.02
		c-1.7,0-3.24-1.14-3.68-2.86L86.49,92.08H64.54c-2.11,0-3.82-1.71-3.82-3.82c0-2.11,1.71-3.82,3.82-3.82h24.89
		c1.91,0,3.48,1.4,3.77,3.22L97.6,104.73L97.6,104.73z M192.11,112.37H99.57l10.87,42.15h64.18L192.11,112.37L192.11,112.37z"/>
	<path class="st1" d="M39.86,127.48c-2.11,0-3.82-1.71-3.82-3.82c0-2.11,1.71-3.82,3.82-3.82h39.11c2.11,0,3.82,1.71,3.82,3.82
		c0,2.11-1.71,3.82-3.82,3.82H39.86L39.86,127.48z"/>
	<path class="st3" d="M22.78,146.2c-2.11,0-3.82-1.71-3.82-3.82s1.71-3.82,3.82-3.82H78.3c2.11,0,3.82,1.71,3.82,3.82
		s-1.71,3.82-3.82,3.82H22.78L22.78,146.2z"/>
	<path class="st2" d="M112.78,127.48c-2.11,0-3.82-1.71-3.82-3.82c0-2.11,1.71-3.82,3.82-3.82h75.53c2.11,0,3.82,1.71,3.82,3.82
		c0,2.11-1.71,3.82-3.82,3.82H112.78L112.78,127.48z"/>
	<path class="st2" d="M120.78,146.2c-2.11,0-3.82-1.71-3.82-3.82s1.71-3.82,3.82-3.82h61.53c2.11,0,3.82,1.71,3.82,3.82
		s-1.71,3.82-3.82,3.82H120.78L120.78,146.2z"/>
	<path class="st2" d="M158.72,111.62c0-2.11,1.71-3.82,3.82-3.82c2.11,0,3.82,1.71,3.82,3.82l-6,42.53c0,2.11-1.71,3.82-3.82,3.82
		c-2.11,0-3.82-1.71-3.82-3.82L158.72,111.62L158.72,111.62z"/>
	<path class="st2" d="M130.72,111.62c0-2.11,1.71-3.82,3.82-3.82c2.11,0,3.82,1.71,3.82,3.82l-2,42.53c0,2.11-1.71,3.82-3.82,3.82
		c-2.11,0-3.82-1.71-3.82-3.82L130.72,111.62L130.72,111.62z"/>
	<path class="st4" d="M62.93,166.54c-2.11,0-3.82-1.71-3.82-3.82c0-2.11,1.71-3.82,3.82-3.82H95c2.11,0,3.82,1.71,3.82,3.82
		c0,2.11-1.71,3.82-3.82,3.82H62.93L62.93,166.54z"/>
	<path class="st2" d="M168.63,184.77c6.28,0,11.37,5.09,11.37,11.37c0,6.28-5.09,11.37-11.37,11.37s-11.37-5.09-11.37-11.37
		C157.25,189.86,162.35,184.77,168.63,184.77L168.63,184.77z"/>
	<path class="st2" d="M124.99,184.77c6.28,0,11.37,5.09,11.37,11.37c0,6.28-5.09,11.37-11.37,11.37c-6.28,0-11.37-5.09-11.37-11.37
		C113.61,189.86,118.71,184.77,124.99,184.77L124.99,184.77z"/>
</g>
<g id="Layer_1">
</g>
</svg>
