<?xml version="1.0" encoding="utf-8"?>
<!-- Generator: Adobe Illustrator 25.4.1, SVG Export Plug-In . SVG Version: 6.00 Build 0)  -->
<svg version="1.1" id="Layer_1" xmlns="http://www.w3.org/2000/svg" xmlns:xlink="http://www.w3.org/1999/xlink" x="0px" y="0px"
	 viewBox="0 0 946 247" style="enable-background:new 0 0 946 247;" xml:space="preserve">
<style type="text/css">
	.st0{fill:#09BAD0;}
	.st1{fill:#FFFFFF;}
	.st2{fill:#034185;}
	.st3{fill:#17CAE2;}
	.st4{fill:#F73C3C;}
	.st5{fill:#F29025;}
</style>
<g>
	<path d="M227.3,105.8h10.3v42h-10.3V105.8z"/>
	<path d="M248.5,105.8h10.8l16.3,24.9v-24.9h10.2v42h-10.7l-16.4-25v25h-10.3V105.8z"/>
	<path d="M306.6,135.5c0,2.4,2,4.4,4.3,4.4c2.6,0,4.2-1.5,4.2-3.6c0-3.1-4.1-4.1-7.6-5.2c-7.1-2.5-11-5.8-11-13
		c0-7.4,6.4-13.6,14.3-13.6c9.3,0,13.7,5.9,14.3,13.7h-9.7c0-2.4-1.5-4.3-4.3-4.3c-2.2,0-4.4,1.3-4.4,4.1c0,3.2,3.9,3.7,7.4,4.8
		c7.5,2.2,11,6.4,11,13c0,7.4-6.3,13.6-14.2,13.6c-9.2,0-14.4-6.2-14.4-13.7H306.6z"/>
	<path d="M343,114.9h-9.4v-9.1h29.3v9.1h-9.5v32.9H343L343,114.9L343,114.9z"/>
	<path d="M383.8,104.4h1.8l20.6,43.4h-11.1l-2.1-4.3h-16.6l-2,4.3h-11.1L383.8,104.4z M389.5,136.2l-4.8-10.6h-0.1l-4.9,10.6H389.5z
		"/>
	<path d="M414.9,105.8h10.9l16.3,24.9v-24.9h10.2v42h-10.7l-16.4-25v25h-10.3V105.8z"/>
	<path d="M470.6,114.9h-9.4v-9.1h29.3v9.1h-9.5v32.9h-10.4L470.6,114.9L470.6,114.9z"/>
	<path d="M541.7,104.4c13.2,0,22.6,9.9,22.6,22.4s-9.4,22.4-22.6,22.4c-13.3,0-22.6-9.9-22.6-22.4
		C519.1,114.3,528.4,104.4,541.7,104.4z M541.7,139.5c7.4,0,12.2-5.6,12.2-12.7c0-7.1-4.8-12.7-12.2-12.7c-7.5,0-12.2,5.6-12.2,12.7
		S534.2,139.5,541.7,139.5z"/>
	<path d="M575.7,105.8h27.1v9.1h-16.8v9h15.5v9h-15.5v15h-10.3L575.7,105.8L575.7,105.8z"/>
	<path d="M611.2,105.8h27.1v9.1h-16.8v9H637v9h-15.5v15h-10.3L611.2,105.8L611.2,105.8z"/>
	<path d="M646.8,105.8h10.3v42h-10.3V105.8z"/>
	<path d="M691.2,104.4c8,0,13.5,3,18,7.7l-7.1,6.7c-2.9-2.9-6.7-4.7-10.9-4.7c-7.5,0-12.3,5.6-12.3,12.7s4.8,12.7,12.3,12.7
		c4.2,0,8-1.8,10.9-4.7l6.9,6.7c-4.2,4.4-10,7.7-17.8,7.7c-13.3,0-22.8-9.9-22.8-22.4C668.4,114.3,677.9,104.4,691.2,104.4z"/>
	<path d="M718.3,105.8h27.8v9.1h-17.5v7.6h16.2v9h-16.2v7.6h18.3v8.8h-28.6V105.8z"/>
	<path d="M755.7,140.1h8.9v1.1l-9.5,14.7h-1.5L755.7,140.1z"/>
	<path d="M792.8,105.8h10.3v42h-10.3V105.8z"/>
	<path d="M814,105.8h10.8l16.3,24.9v-24.9h10.2v42h-10.7l-16.4-25v25H814L814,105.8L814,105.8z"/>
	<path d="M885.5,104.4c8,0,13.5,3,18,7.7l-7.1,6.7c-2.9-2.9-6.7-4.7-10.9-4.7c-7.5,0-12.3,5.6-12.3,12.7s4.8,12.7,12.3,12.7
		c4.2,0,8-1.8,10.9-4.7l6.9,6.7c-4.2,4.4-10,7.7-17.8,7.7c-13.3,0-22.8-9.9-22.8-22.4S872.2,104.4,885.5,104.4z"/>
	<path d="M916.6,139.2c3,0,5,1.8,5,4.8s-2,4.8-5,4.8c-3,0-5-1.8-5-4.8S913.6,139.2,916.6,139.2z"/>
</g>
<g>
	<path class="st0" d="M238.8,186l-0.3-16.4v-1c0.1-0.2,0.2-0.5,0.3-0.7s0.4-0.5,0.8-0.8c0.4-0.3,0.9-0.4,1.5-0.4
		c0.7,0,1.2,0.2,1.6,0.5c0.3,0.4,0.4,0.9,0.4,1.6l-0.1,12.8l6.8-13.1c0.3-0.5,0.6-0.9,1.1-1.3s1-0.5,1.6-0.5c1.2,0,1.9,0.6,2,1.8
		l1.1,13.1l5.3-12.8c0.3-0.7,0.7-1.2,1.2-1.6s1-0.6,1.7-0.6c0.6,0,1.1,0.2,1.4,0.5c0.3,0.4,0.4,0.7,0.4,1.1l0,0.4
		c-0.1,0.2-0.1,0.4-0.1,0.6c-0.1,0.2-0.2,0.3-0.2,0.4l-7.3,16.4c-0.3,0.7-0.8,1.2-1.4,1.7c-0.6,0.4-1.3,0.7-2.2,0.7
		c-0.7,0-1.3-0.2-1.7-0.6s-0.7-0.9-0.8-1.6l-1-11.6l-6,11.6c-0.3,0.6-0.8,1.2-1.4,1.6s-1.3,0.6-2.1,0.6c-0.8,0-1.4-0.2-1.8-0.7
		C239.1,187.2,238.8,186.7,238.8,186z"/>
	<path class="st0" d="M269.6,185.9l3.5-16.5c0.2-0.8,0.5-1.4,1-1.9c0.5-0.5,1.1-0.7,1.9-0.7h7.4c0.7,0,1.1,0.2,1.4,0.5
		s0.4,0.7,0.4,1l-0.1,0.5c-0.1,0.5-0.4,1-0.9,1.4s-1,0.6-1.7,0.6h-5.3l-0.9,4.4h4.9c0.7,0,1.1,0.2,1.4,0.5c0.3,0.3,0.4,0.7,0.4,1.1
		c0,0.2,0,0.5-0.1,0.8s-0.4,0.7-0.8,1.1s-1,0.6-1.8,0.6h-4.9l-1,4.6h5.6c0.7,0,1.2,0.2,1.5,0.6c0.2,0.3,0.3,0.6,0.3,1l0,0.5
		c-0.1,0.5-0.4,1-0.9,1.4c-0.5,0.4-1.1,0.6-1.7,0.6h-7.8c-0.7,0-1.1-0.2-1.4-0.5s-0.5-0.7-0.5-1.1L269.6,185.9z"/>
	<path class="st0" d="M320.1,169.4c-0.1,0.6-0.4,1.1-0.9,1.6s-1,0.7-1.6,0.7c-0.3,0-0.9-0.1-1.7-0.4c-0.8-0.3-1.5-0.4-2-0.4
		c-0.7,0-1.4,0.2-1.9,0.5s-0.9,0.8-1,1.5c0,0.8,0.9,1.6,2.8,2.2s3.3,1.2,4.2,1.9s1.4,1.6,1.4,2.9c0,0.4,0,0.6,0,0.9s-0.2,1-0.4,2.2
		s-1.3,2.6-3,3.8c-1.7,1.3-3.7,1.9-5.9,1.9c-1.8,0-3.4-0.2-4.7-0.7c-1.3-0.4-2-1.2-2-2.1l0.1-0.6c0.1-0.6,0.4-1.1,0.8-1.5
		s1-0.6,1.6-0.6c0.4,0,1.1,0.2,2.3,0.6s2,0.6,2.5,0.6c1,0,1.8-0.2,2.4-0.7c0.6-0.5,1-1.1,1.2-1.9l0-0.2c0-0.8-0.7-1.5-2.2-2
		s-2.6-0.9-3.4-1.2s-1.5-0.7-2-1.1c-0.6-0.4-0.9-1.1-0.9-2.2c0-0.2,0-0.4,0-0.5c0-0.2,0-0.5,0.1-1.1c0.5-2,1.6-3.7,3.3-4.9
		s3.6-1.9,5.7-1.9c1.2,0,2.4,0.2,3.6,0.7s1.7,1.1,1.7,1.9L320.1,169.4z"/>
	<path class="st0" d="M326.3,185.9l3.5-16.5c0.2-0.8,0.5-1.4,1-1.9c0.5-0.5,1.1-0.7,1.9-0.7h7.4c0.7,0,1.1,0.2,1.4,0.5
		s0.4,0.7,0.4,1l-0.1,0.5c-0.1,0.5-0.4,1-0.9,1.4s-1,0.6-1.7,0.6H334l-0.9,4.4h4.9c0.7,0,1.1,0.2,1.4,0.5c0.3,0.3,0.4,0.7,0.4,1.1
		c0,0.2,0,0.5-0.1,0.8s-0.4,0.7-0.8,1.1s-1,0.6-1.8,0.6h-4.9l-1,4.6h5.6c0.7,0,1.2,0.2,1.5,0.6c0.2,0.3,0.3,0.6,0.3,1l0,0.5
		c-0.1,0.5-0.4,1-0.9,1.4c-0.5,0.4-1.1,0.6-1.7,0.6h-7.8c-0.7,0-1.1-0.2-1.4-0.5s-0.5-0.7-0.5-1.1L326.3,185.9z"/>
	<path class="st0" d="M346.4,185.7L350,169c0.2-0.8,0.5-1.3,1-1.7s1.1-0.6,1.8-0.6c0.7,0,1.1,0.2,1.4,0.5c0.3,0.3,0.4,0.7,0.4,1.2
		c0,0.3,0,0.5-0.1,0.7l-3.2,15.1h5.4c0.7,0,1.2,0.2,1.5,0.6c0.2,0.3,0.3,0.7,0.3,1l-0.1,0.5c-0.1,0.5-0.4,1-0.9,1.4
		c-0.5,0.4-1,0.6-1.7,0.6h-7.5c-0.7,0-1.2-0.2-1.5-0.5s-0.4-0.8-0.4-1.2L346.4,185.7z"/>
	<path class="st0" d="M365.4,185.7L369,169c0.2-0.8,0.5-1.3,1-1.7s1.1-0.6,1.8-0.6c0.7,0,1.1,0.2,1.4,0.5c0.3,0.3,0.4,0.7,0.4,1.2
		c0,0.3,0,0.5-0.1,0.7l-3.2,15.1h5.4c0.7,0,1.2,0.2,1.5,0.6c0.2,0.3,0.3,0.7,0.3,1l-0.1,0.5c-0.1,0.5-0.4,1-0.9,1.4
		c-0.5,0.4-1,0.6-1.7,0.6h-7.5c-0.7,0-1.2-0.2-1.5-0.5s-0.4-0.8-0.4-1.2L365.4,185.7z"/>
	<path class="st0" d="M398.7,185.7l3.6-16.7c0.2-0.8,0.5-1.3,1-1.7s1.1-0.6,1.8-0.6c0.7,0,1.1,0.2,1.4,0.5c0.3,0.3,0.4,0.7,0.4,1.2
		c0,0.3,0,0.5-0.1,0.7l-3.2,15.1h5.4c0.7,0,1.2,0.2,1.5,0.6c0.2,0.3,0.3,0.7,0.3,1l-0.1,0.5c-0.1,0.5-0.4,1-0.9,1.4
		c-0.5,0.4-1,0.6-1.7,0.6h-7.5c-0.7,0-1.2-0.2-1.5-0.5s-0.4-0.8-0.4-1.2L398.7,185.7z"/>
	<path class="st0" d="M418.6,177.5c0.7-3.2,2.2-5.8,4.6-7.9s5.1-3.1,8.1-3.1c3,0,5.1,0.9,6.4,2.7c1.3,1.8,1.9,3.7,1.9,5.6
		c0,0.9-0.2,2.4-0.7,4.4c-0.5,2-1.9,4.1-4.2,6.2c-2.4,2.1-5.1,3.1-8.1,3.1c-3,0-5.2-0.9-6.4-2.7c-1.2-1.8-1.9-3.6-1.9-5.6
		c0-0.4,0-0.8,0.1-1.3C418.4,178.5,418.5,178,418.6,177.5z M434.6,177.5c0.1-0.4,0.1-0.7,0.1-1s0.1-0.6,0.1-1c0-1.1-0.3-2.2-0.8-3.3
		s-1.8-1.6-3.6-1.6c-1.8,0-3.3,0.7-4.6,2c-1.3,1.3-2,2.6-2.3,4s-0.4,2.4-0.4,3c0,1.1,0.2,2.1,0.7,2.9c0.7,1.3,1.9,2,3.8,2
		c1.8,0,3.3-0.7,4.6-2C433.3,181.1,434.1,179.4,434.6,177.5z"/>
	<path class="st0" d="M449.1,186l3.2-15.1H449c-0.7,0-1.1-0.2-1.3-0.5c-0.2-0.3-0.3-0.7-0.3-1.1l0.1-0.5c0.1-0.5,0.4-1,0.8-1.4
		s1-0.6,1.6-0.6h11c0.6,0,1.1,0.2,1.4,0.6c0.2,0.3,0.3,0.6,0.3,1l0,0.5c-0.1,0.5-0.4,1-0.8,1.4c-0.5,0.4-1,0.6-1.7,0.6h-3.3
		l-3.2,15.1c-0.1,0.7-0.5,1.3-1,1.7c-0.5,0.4-1.1,0.6-1.8,0.6c-0.7,0-1.1-0.2-1.4-0.5c-0.3-0.3-0.4-0.7-0.4-1.2L449.1,186z"/>
	<path class="st0" d="M482.3,169.4c-0.1,0.6-0.4,1.1-0.9,1.6s-1,0.7-1.6,0.7c-0.3,0-0.9-0.1-1.7-0.4c-0.8-0.3-1.5-0.4-2-0.4
		c-0.7,0-1.4,0.2-1.9,0.5s-0.9,0.8-1,1.5c0,0.8,0.9,1.6,2.8,2.2s3.3,1.2,4.2,1.9s1.4,1.6,1.4,2.9c0,0.4,0,0.6,0,0.9s-0.2,1-0.4,2.2
		s-1.3,2.6-3,3.8c-1.7,1.3-3.7,1.9-5.9,1.9c-1.8,0-3.4-0.2-4.7-0.7c-1.3-0.4-2-1.2-2-2.1l0.1-0.6c0.1-0.6,0.4-1.1,0.8-1.5
		s1-0.6,1.6-0.6c0.4,0,1.1,0.2,2.3,0.6s2,0.6,2.5,0.6c1,0,1.8-0.2,2.4-0.7c0.6-0.5,1-1.1,1.2-1.9l0-0.2c0-0.8-0.7-1.5-2.2-2
		s-2.6-0.9-3.4-1.2s-1.5-0.7-2-1.1c-0.6-0.4-0.9-1.1-0.9-2.2c0-0.2,0-0.4,0-0.5c0-0.2,0-0.5,0.1-1.1c0.5-2,1.6-3.7,3.3-4.9
		s3.6-1.9,5.7-1.9c1.2,0,2.4,0.2,3.6,0.7s1.7,1.1,1.7,1.9L482.3,169.4z"/>
	<path class="st0" d="M503.7,177.5c0.7-3.2,2.2-5.8,4.6-7.9s5.1-3.1,8.1-3.1c3,0,5.1,0.9,6.4,2.7c1.3,1.8,1.9,3.7,1.9,5.6
		c0,0.9-0.2,2.4-0.7,4.4c-0.5,2-1.9,4.1-4.2,6.2c-2.4,2.1-5.1,3.1-8.1,3.1c-3,0-5.2-0.9-6.4-2.7c-1.2-1.8-1.9-3.6-1.9-5.6
		c0-0.4,0-0.8,0.1-1.3C503.5,178.5,503.6,178,503.7,177.5z M519.7,177.5c0.1-0.4,0.1-0.7,0.2-1s0.1-0.6,0.1-1c0-1.1-0.3-2.2-0.8-3.3
		s-1.8-1.6-3.6-1.6c-1.8,0-3.3,0.7-4.6,2c-1.3,1.3-2,2.6-2.3,4s-0.4,2.4-0.4,3c0,1.1,0.2,2.1,0.7,2.9c0.7,1.3,1.9,2,3.7,2
		c1.8,0,3.3-0.7,4.6-2C518.4,181.1,519.2,179.4,519.7,177.5z"/>
	<path class="st0" d="M530.6,186l3.6-16.9c0.1-0.6,0.5-1.2,1-1.6c0.5-0.5,1.2-0.7,1.9-0.7h7.7c0.6,0,1,0.2,1.3,0.5
		c0.2,0.3,0.3,0.7,0.3,1.1l0,0.5c-0.1,0.5-0.4,1-0.8,1.4s-1,0.6-1.6,0.6h-5.5l-0.9,4.4h4.7c0.6,0,1.1,0.2,1.4,0.5s0.4,0.7,0.4,1.1
		l0,0.5c-0.2,0.6-0.5,1.1-0.9,1.5s-1,0.6-1.7,0.6h-4.7l-1.4,6.5c-0.1,0.7-0.5,1.3-1,1.7c-0.5,0.4-1.1,0.6-1.8,0.6s-1.1-0.2-1.4-0.5
		c-0.3-0.3-0.4-0.7-0.4-1.2L530.6,186z"/>
	<path class="st0" d="M563.4,185.3l9.5-16.3c0.4-0.7,0.9-1.3,1.6-1.8s1.4-0.7,2.2-0.7c0.8,0,1.3,0.2,1.7,0.5s0.6,0.6,0.7,1
		c0.2,0.3,0.2,0.7,0.3,1l2.4,16.3l0.1,0.6l-0.1,0.5c-0.2,0.6-0.5,1.1-0.9,1.4s-1,0.5-1.6,0.5c-0.6,0-1-0.1-1.3-0.4
		c-0.4-0.3-0.5-0.7-0.5-1.1l-0.3-2.8h-8.4l-1.5,2.8c-0.1,0.2-0.3,0.5-0.5,0.7s-0.4,0.4-0.7,0.6c-0.3,0.2-0.7,0.3-1.3,0.3
		s-1-0.2-1.4-0.5s-0.5-0.7-0.5-1.1l0.1-0.5l0.2-0.7L563.4,185.3z M575.7,171.1l-4.7,8.7h5.7L575.7,171.1z"/>
	<path class="st0" d="M589,185.7l6.4-16.7c0.2-0.6,0.7-1.1,1.3-1.6s1.4-0.7,2.1-0.7c0.7,0,1.3,0.2,1.8,0.7s0.7,0.9,0.7,1.5l1,11.9
		l6.1-11.9c0.3-0.6,0.8-1.1,1.4-1.5c0.7-0.4,1.4-0.6,2-0.6c0.7,0,1.3,0.2,1.6,0.5s0.6,0.6,0.7,0.9s0.2,0.6,0.2,0.9l-0.8,16.7
		l-0.1,0.5c-0.1,0.6-0.4,1.2-1,1.6s-1.1,0.6-1.7,0.6c-1.3,0-1.9-0.7-1.9-2.1l0.8-12.2l-6.3,12.6c-0.2,0.5-0.6,0.9-1,1.2
		s-1,0.5-1.7,0.5s-1.2-0.1-1.4-0.4s-0.3-0.5-0.5-0.6c-0.1-0.2-0.2-0.4-0.2-0.7l-0.9-12.6l-4.4,12.2c-0.3,0.8-0.6,1.3-1.1,1.6
		c-0.4,0.3-1,0.5-1.7,0.5c-0.6,0-1.1-0.2-1.4-0.5c-0.3-0.3-0.4-0.7-0.4-1.1l0.1-0.5L589,185.7z"/>
	<path class="st0" d="M621,185.3l9.5-16.3c0.4-0.7,0.9-1.3,1.6-1.8s1.4-0.7,2.2-0.7c0.8,0,1.3,0.2,1.7,0.5s0.6,0.6,0.7,1
		c0.2,0.3,0.2,0.7,0.3,1l2.4,16.3l0.1,0.6l-0.1,0.5c-0.2,0.6-0.5,1.1-0.9,1.4s-1,0.5-1.6,0.5c-0.6,0-1-0.1-1.3-0.4
		c-0.4-0.3-0.5-0.7-0.5-1.1l-0.3-2.8h-8.4l-1.5,2.8c-0.1,0.2-0.3,0.5-0.5,0.7s-0.4,0.4-0.7,0.6c-0.3,0.2-0.7,0.3-1.3,0.3
		s-1-0.2-1.4-0.5s-0.5-0.7-0.5-1.1l0.1-0.5l0.2-0.7L621,185.3z M633.3,171.1l-4.7,8.7h5.7L633.3,171.1z"/>
	<path class="st0" d="M652.4,184.2h8.7c0.7,0,1.1,0.1,1.4,0.4c0.3,0.3,0.4,0.6,0.4,1l-0.1,0.5c-0.1,0.6-0.4,1-1,1.4s-1,0.6-1.6,0.6
		h-11.8c-0.7,0-1.3-0.2-1.6-0.5c-0.3-0.3-0.5-0.7-0.5-1.2l0.1-0.5c0.2-0.6,0.5-1.2,1-1.8l12.5-13.4H652c-1.2,0-1.8-0.4-1.8-1.4
		l0-0.6c0.2-0.6,0.5-1.1,1-1.5c0.5-0.4,1-0.6,1.6-0.6h11c0.8,0,1.4,0.2,1.7,0.5s0.4,0.8,0.4,1.2l0,0.4c-0.2,0.7-0.5,1.4-1.1,1.9
		L652.4,184.2z"/>
	<path class="st0" d="M671.1,186l3.6-17c0.2-0.8,0.5-1.3,1-1.7s1.1-0.6,1.8-0.6c0.7,0,1.1,0.2,1.4,0.5c0.3,0.3,0.4,0.7,0.4,1.2
		c0,0.3,0,0.5-0.1,0.7l-3.7,17c-0.1,0.7-0.5,1.3-1,1.7c-0.5,0.4-1.1,0.6-1.8,0.6s-1.1-0.2-1.4-0.5c-0.3-0.3-0.4-0.7-0.4-1.2
		L671.1,186z"/>
	<path class="st0" d="M684.3,186l3.6-17c0.2-0.8,0.5-1.3,1-1.7s1.1-0.6,1.8-0.6c0.3,0,0.6,0.1,0.8,0.2s0.5,0.3,0.6,0.4
		s0.2,0.2,0.3,0.4l6.8,12.7l2.5-11.3c0.2-0.8,0.5-1.4,1-1.7c0.5-0.4,1-0.6,1.7-0.6s1.2,0.2,1.5,0.5s0.4,0.7,0.4,1.1l-0.1,0.7
		l-3.7,17c-0.1,0.7-0.5,1.3-1,1.7c-0.5,0.4-1.1,0.6-1.8,0.6c-0.3,0-0.6-0.1-0.9-0.3c-0.3-0.2-0.6-0.4-0.8-0.7l-6.8-12.5l-2.5,11.2
		c-0.1,0.7-0.5,1.3-1,1.7c-0.5,0.4-1.1,0.6-1.8,0.6c-0.6,0-1.1-0.2-1.4-0.5c-0.3-0.3-0.4-0.7-0.4-1.2L684.3,186z"/>
	<path class="st0" d="M725,175.5h5.1c1.4,0,2.2,0.6,2.2,1.9c0,0.2,0,0.4,0,0.6c-0.1,0.2-0.3,1-0.6,2.6s-1.6,3.2-3.8,5.1
		c-2.2,1.9-4.8,2.9-7.7,2.9c-3,0-5.2-0.9-6.4-2.7c-1.2-1.8-1.9-3.6-1.9-5.6c0-0.4,0-0.8,0.1-1.3c0.1-0.5,0.3-1.6,0.7-3.5
		c0.4-1.8,1.8-3.8,4.1-5.9c2.4-2.1,5.1-3.1,8.1-3.1c2.2,0,4,0.4,5.4,1.2s2,1.7,2,2.6l-0.1,0.4c-0.1,0.3-0.2,0.6-0.3,0.8
		s-0.4,0.5-0.7,0.8c-0.4,0.3-0.8,0.5-1.3,0.5c-0.2,0-0.9-0.4-2.2-1.1c-1.3-0.7-2.5-1.1-3.8-1.1c-1.8,0-3.3,0.7-4.6,2
		c-1.3,1.3-2,2.6-2.3,4s-0.4,2.4-0.4,3c0,1.1,0.2,2.1,0.7,2.9c0.7,1.3,1.9,2,3.8,2c1.4,0,2.6-0.4,3.8-1.2s1.9-2,2.3-3.6h-3.1
		c-0.6,0-1-0.2-1.4-0.6c-0.2-0.3-0.3-0.7-0.3-1l0.1-0.5c0.1-0.6,0.4-1.1,0.9-1.5C723.9,175.7,724.4,175.5,725,175.5z"/>
	<path class="st0" d="M756.5,186l3.2-15.1h-3.3c-0.7,0-1.1-0.2-1.3-0.5c-0.2-0.3-0.3-0.7-0.3-1.1l0.1-0.5c0.1-0.5,0.4-1,0.8-1.4
		c0.5-0.4,1-0.6,1.7-0.6h11c0.6,0,1.1,0.2,1.4,0.6c0.2,0.3,0.3,0.6,0.3,1l0,0.5c-0.1,0.5-0.4,1-0.8,1.4c-0.5,0.4-1,0.6-1.7,0.6h-3.3
		L761,186c-0.1,0.7-0.5,1.3-1,1.7c-0.5,0.4-1.1,0.6-1.8,0.6c-0.7,0-1.1-0.2-1.4-0.5c-0.3-0.3-0.4-0.7-0.4-1.2L756.5,186z"/>
	<path class="st0" d="M773.5,186l3.6-17c0.2-0.8,0.5-1.3,1-1.7s1.1-0.6,1.8-0.6c0.7,0,1.1,0.2,1.4,0.5c0.3,0.3,0.4,0.7,0.4,1.2
		c0,0.3,0,0.5-0.1,0.7l-1.3,6.4h9.4l1.3-6.4c0.1-0.7,0.4-1.2,0.8-1.5s0.7-0.5,1-0.6c0.3-0.1,0.6-0.1,1-0.1c0.7,0,1.2,0.2,1.6,0.6
		c0.2,0.3,0.3,0.6,0.3,1.1c0,0.3,0,0.5-0.1,0.7l-3.7,17c-0.2,0.8-0.5,1.3-0.9,1.7c-0.5,0.4-1.1,0.6-1.8,0.6s-1.1-0.2-1.4-0.5
		s-0.4-0.7-0.4-1.2l0.1-0.7l1.4-6.5h-9.4L778,186c-0.1,0.7-0.5,1.3-1,1.7c-0.5,0.4-1.1,0.6-1.8,0.6s-1.1-0.2-1.4-0.5
		c-0.3-0.3-0.4-0.7-0.4-1.2L773.5,186z"/>
	<path class="st0" d="M800.8,186l3.6-17c0.2-0.8,0.5-1.3,1-1.7s1.1-0.6,1.8-0.6c0.7,0,1.1,0.2,1.4,0.5c0.3,0.3,0.4,0.7,0.4,1.2
		c0,0.3,0,0.5-0.1,0.7l-3.7,17c-0.1,0.7-0.5,1.3-1,1.7c-0.5,0.4-1.1,0.6-1.8,0.6s-1.1-0.2-1.4-0.5c-0.3-0.3-0.4-0.7-0.4-1.2
		L800.8,186z"/>
	<path class="st0" d="M814,186l3.6-17c0.2-0.8,0.5-1.3,1-1.7s1.1-0.6,1.8-0.6c0.3,0,0.6,0.1,0.8,0.2s0.5,0.3,0.6,0.4
		s0.2,0.2,0.3,0.4l6.8,12.7l2.5-11.3c0.2-0.8,0.5-1.4,1-1.7c0.5-0.4,1-0.6,1.7-0.6s1.2,0.2,1.5,0.5s0.4,0.7,0.4,1.1l-0.1,0.7
		l-3.7,17c-0.1,0.7-0.5,1.3-1,1.7c-0.5,0.4-1.1,0.6-1.8,0.6c-0.3,0-0.6-0.1-0.9-0.3c-0.3-0.2-0.6-0.4-0.8-0.7l-6.8-12.5l-2.5,11.2
		c-0.1,0.7-0.5,1.3-1,1.7c-0.5,0.4-1.1,0.6-1.8,0.6c-0.6,0-1.1-0.2-1.4-0.5c-0.3-0.3-0.4-0.7-0.4-1.2L814,186z"/>
	<path class="st0" d="M854.8,175.5h5.1c1.4,0,2.2,0.6,2.2,1.9c0,0.2,0,0.4,0,0.6c-0.1,0.2-0.3,1-0.6,2.6s-1.6,3.2-3.8,5.1
		c-2.2,1.9-4.8,2.9-7.7,2.9c-3,0-5.2-0.9-6.4-2.7c-1.2-1.8-1.9-3.6-1.9-5.6c0-0.4,0-0.8,0.1-1.3c0.1-0.5,0.3-1.6,0.7-3.5
		c0.4-1.8,1.8-3.8,4.1-5.9c2.4-2.1,5.1-3.1,8.1-3.1c2.2,0,4,0.4,5.4,1.2s2,1.7,2,2.6l-0.1,0.4c-0.1,0.3-0.2,0.6-0.3,0.8
		s-0.4,0.5-0.7,0.8c-0.4,0.3-0.8,0.5-1.3,0.5c-0.2,0-0.9-0.4-2.2-1.1c-1.3-0.7-2.5-1.1-3.8-1.1c-1.8,0-3.3,0.7-4.6,2
		c-1.3,1.3-2,2.6-2.3,4s-0.4,2.4-0.4,3c0,1.1,0.2,2.1,0.7,2.9c0.7,1.3,1.9,2,3.8,2c1.4,0,2.6-0.4,3.8-1.2s1.9-2,2.3-3.6h-3.1
		c-0.6,0-1-0.2-1.4-0.6c-0.2-0.3-0.3-0.7-0.3-1l0.1-0.5c0.1-0.6,0.4-1.1,0.9-1.5C853.6,175.7,854.2,175.5,854.8,175.5z"/>
	<path class="st0" d="M884.6,169.4c-0.1,0.6-0.4,1.1-0.9,1.6s-1,0.7-1.6,0.7c-0.3,0-0.9-0.1-1.7-0.4s-1.5-0.4-2-0.4
		c-0.7,0-1.3,0.2-1.9,0.5s-0.9,0.8-1,1.5c0,0.8,0.9,1.6,2.8,2.2s3.3,1.2,4.2,1.9s1.4,1.6,1.4,2.9c0,0.4,0,0.6,0,0.9s-0.2,1-0.4,2.2
		s-1.3,2.6-3,3.8c-1.7,1.3-3.7,1.9-5.9,1.9c-1.8,0-3.4-0.2-4.7-0.7c-1.3-0.4-2-1.2-2-2.1l0.1-0.6c0.1-0.6,0.3-1.1,0.8-1.5
		s1-0.6,1.6-0.6c0.4,0,1.1,0.2,2.3,0.6c1.2,0.4,2,0.6,2.5,0.6c1,0,1.8-0.2,2.4-0.7s1-1.1,1.2-1.9l0-0.2c0-0.8-0.7-1.5-2.2-2
		s-2.6-0.9-3.4-1.2c-0.8-0.3-1.5-0.7-2-1.1c-0.6-0.4-0.9-1.1-0.9-2.2c0-0.2,0-0.4,0-0.5c0-0.2,0-0.5,0.1-1.1c0.5-2,1.6-3.7,3.3-4.9
		s3.6-1.9,5.7-1.9c1.2,0,2.4,0.2,3.6,0.7s1.7,1.1,1.7,1.9L884.6,169.4z"/>
</g>
<polygon class="st1" points="178,158.7 108,159 95,107 198,107 "/>
<path class="st2" d="M97.6,104.7h100.2c2.1,0,3.8,1.7,3.8,3.8c0,0.6-0.1,1.2-0.4,1.7l-20.6,49.6c-0.6,1.5-2,2.4-3.5,2.4v0h-64.8
	l2,7.7h68.7c2.1,0,3.8,1.7,3.8,3.8s-1.7,3.8-3.8,3.8h-71.6v0c-1.7,0-3.2-1.1-3.7-2.9L86.5,92.1H64.5c-2.1,0-3.8-1.7-3.8-3.8
	s1.7-3.8,3.8-3.8h24.9c1.9,0,3.5,1.4,3.8,3.2L97.6,104.7L97.6,104.7z M192.1,112.4H99.6l10.9,42.2h64.2L192.1,112.4L192.1,112.4z"/>
<path class="st3" d="M39.9,127.5c-2.1,0-3.8-1.7-3.8-3.8s1.7-3.8,3.8-3.8H79c2.1,0,3.8,1.7,3.8,3.8s-1.7,3.8-3.8,3.8H39.9
	L39.9,127.5z"/>
<path class="st4" d="M22.8,146.2c-2.1,0-3.8-1.7-3.8-3.8s1.7-3.8,3.8-3.8h55.5c2.1,0,3.8,1.7,3.8,3.8s-1.7,3.8-3.8,3.8H22.8
	L22.8,146.2z"/>
<path class="st2" d="M112.8,127.5c-2.1,0-3.8-1.7-3.8-3.8s1.7-3.8,3.8-3.8h75.5c2.1,0,3.8,1.7,3.8,3.8s-1.7,3.8-3.8,3.8H112.8
	L112.8,127.5z"/>
<path class="st2" d="M120.8,146.2c-2.1,0-3.8-1.7-3.8-3.8s1.7-3.8,3.8-3.8h61.5c2.1,0,3.8,1.7,3.8,3.8s-1.7,3.8-3.8,3.8H120.8
	L120.8,146.2z"/>
<path class="st2" d="M158.7,111.6c0-2.1,1.7-3.8,3.8-3.8s3.8,1.7,3.8,3.8l-6,42.5c0,2.1-1.7,3.8-3.8,3.8s-3.8-1.7-3.8-3.8
	L158.7,111.6L158.7,111.6z"/>
<path class="st2" d="M130.7,111.6c0-2.1,1.7-3.8,3.8-3.8s3.8,1.7,3.8,3.8l-2,42.5c0,2.1-1.7,3.8-3.8,3.8s-3.8-1.7-3.8-3.8
	L130.7,111.6L130.7,111.6z"/>
<path class="st5" d="M62.9,166.5c-2.1,0-3.8-1.7-3.8-3.8s1.7-3.8,3.8-3.8H95c2.1,0,3.8,1.7,3.8,3.8s-1.7,3.8-3.8,3.8H62.9
	L62.9,166.5z"/>
<path class="st2" d="M168.6,184.8c6.3,0,11.4,5.1,11.4,11.4s-5.1,11.4-11.4,11.4s-11.4-5.1-11.4-11.4
	C157.2,189.9,162.4,184.8,168.6,184.8L168.6,184.8z"/>
<path class="st2" d="M125,184.8c6.3,0,11.4,5.1,11.4,11.4s-5.1,11.4-11.4,11.4c-6.3,0-11.4-5.1-11.4-11.4
	C113.6,189.9,118.7,184.8,125,184.8L125,184.8z"/>
<g id="Layer_1_00000034808800185932326890000009858414032598745759_">
</g>
</svg>
